<svg id="svg" version="1.1" xmlns="http://www.w3.org/2000/svg" xmlns:xlink="http://www.w3.org/1999/xlink" width="400" height="400" viewBox="0, 0, 400,400"><g id="svgg"><path id="path0" d="M156.267 124.667 C 156.120 124.813,156.000 158.833,156.000 200.267 L 156.000 275.600 200.206 275.600 L 244.413 275.600 244.306 264.500 L 244.200 253.400 212.800 253.200 L 181.400 253.000 181.299 188.700 L 181.198 124.400 168.865 124.400 C 162.083 124.400,156.413 124.520,156.267 124.667 " stroke="none" fill="#fcfcfc" fill-rule="evenodd"></path><path id="path1" d="M162.700 124.299 C 166.055 124.366,171.545 124.366,174.900 124.299 C 178.255 124.232,175.510 124.178,168.800 124.178 C 162.090 124.178,159.345 124.232,162.700 124.299 M155.699 200.100 L 155.800 275.800 200.200 275.800 L 244.600 275.800 244.707 264.827 C 244.765 258.791,244.675 253.715,244.507 253.546 C 244.338 253.377,244.250 258.270,244.312 264.419 L 244.424 275.600 200.210 275.600 L 155.996 275.600 156.098 200.000 C 156.154 158.420,156.065 124.400,155.899 124.400 C 155.733 124.400,155.643 158.465,155.699 200.100 M181.200 188.553 C 181.200 230.921,181.336 252.837,181.600 253.000 C 181.866 253.164,182.000 231.745,182.000 189.047 C 182.000 146.679,181.864 124.763,181.600 124.600 C 181.334 124.436,181.200 145.855,181.200 188.553 " stroke="none" fill="#9c9c9c" fill-rule="evenodd"></path><path id="path2" d="M155.298 199.867 C 155.244 241.264,155.309 275.419,155.443 275.767 C 155.704 276.449,244.118 276.779,244.538 276.100 C 244.640 275.935,224.716 275.800,200.262 275.800 L 155.800 275.800 155.598 200.200 L 155.397 124.600 155.298 199.867 M193.000 253.093 C 222.195 253.369,244.706 253.372,244.538 253.100 C 244.436 252.935,230.278 252.842,213.076 252.894 C 195.874 252.945,186.840 253.035,193.000 253.093 " stroke="none" fill="#646464" fill-rule="evenodd"></path><path id="path3" d="M178.300 0.275 C 176.375 0.361,174.800 0.604,174.800 0.816 C 174.800 1.027,173.540 1.200,172.000 1.200 C 170.400 1.200,169.200 1.371,169.200 1.600 C 169.200 1.822,168.133 2.000,166.800 2.000 C 165.467 2.000,164.400 2.178,164.400 2.400 C 164.400 2.620,163.410 2.800,162.200 2.800 C 160.990 2.800,160.000 2.980,160.000 3.200 C 160.000 3.420,159.280 3.600,158.400 3.600 C 157.520 3.600,156.800 3.780,156.800 4.000 C 156.800 4.220,155.900 4.400,154.800 4.400 C 153.700 4.400,152.800 4.580,152.800 4.800 C 152.800 5.020,152.080 5.200,151.200 5.200 C 150.320 5.200,149.600 5.380,149.600 5.600 C 149.600 5.820,148.970 6.000,148.200 6.000 C 147.430 6.000,146.800 6.180,146.800 6.400 C 146.800 6.620,146.170 6.800,145.400 6.800 C 144.630 6.800,144.000 6.980,144.000 7.200 C 144.000 7.420,143.561 7.600,143.024 7.600 C 142.487 7.600,141.936 7.780,141.800 8.000 C 141.664 8.220,141.032 8.400,140.396 8.400 C 139.090 8.400,130.272 11.207,130.067 11.688 C 129.993 11.860,129.586 12.000,129.161 12.000 C 128.737 12.000,128.032 12.180,127.595 12.400 C 127.158 12.620,126.442 12.980,126.005 13.200 C 125.568 13.420,124.938 13.600,124.605 13.600 C 124.272 13.600,124.000 13.780,124.000 14.000 C 124.000 14.220,123.640 14.400,123.200 14.400 C 122.760 14.400,122.400 14.580,122.400 14.800 C 122.400 15.020,121.860 15.200,121.200 15.200 C 120.540 15.200,120.000 15.380,120.000 15.600 C 120.000 15.820,119.640 16.000,119.200 16.000 C 118.760 16.000,118.400 16.180,118.400 16.400 C 118.400 16.620,118.040 16.800,117.600 16.800 C 117.160 16.800,116.800 16.980,116.800 17.200 C 116.800 17.420,116.528 17.600,116.195 17.600 C 115.862 17.600,115.277 17.760,114.895 17.956 C 114.513 18.152,113.300 18.737,112.200 19.256 C 111.100 19.775,110.140 20.335,110.067 20.500 C 109.993 20.665,109.588 20.800,109.167 20.800 C 108.745 20.800,108.400 20.980,108.400 21.200 C 108.400 21.420,108.040 21.600,107.600 21.600 C 107.160 21.600,106.800 21.780,106.800 22.000 C 106.800 22.220,106.480 22.400,106.088 22.400 C 105.697 22.400,105.117 22.760,104.800 23.200 C 104.483 23.640,103.903 24.000,103.512 24.000 C 103.120 24.000,102.800 24.180,102.800 24.400 C 102.800 24.620,102.509 24.800,102.154 24.800 C 101.438 24.800,97.477 26.826,97.267 27.300 C 97.193 27.465,96.956 27.600,96.739 27.600 C 96.522 27.600,95.559 28.140,94.600 28.800 C 93.641 29.460,92.703 30.000,92.516 30.000 C 92.329 30.000,91.917 30.360,91.600 30.800 C 91.283 31.240,90.743 31.600,90.400 31.600 C 90.057 31.600,89.517 31.960,89.200 32.400 C 88.883 32.840,88.343 33.200,88.000 33.200 C 87.657 33.200,87.117 33.560,86.800 34.000 C 86.483 34.440,85.943 34.800,85.600 34.800 C 85.257 34.800,84.717 35.160,84.400 35.600 C 84.083 36.040,83.620 36.400,83.371 36.400 C 83.122 36.400,82.354 36.940,81.663 37.600 C 80.972 38.260,80.208 38.800,79.964 38.800 C 79.720 38.800,79.017 39.340,78.400 40.000 C 77.783 40.660,77.164 41.200,77.023 41.200 C 76.740 41.200,76.063 41.731,74.599 43.100 C 74.070 43.595,73.476 44.000,73.279 44.000 C 73.083 44.000,71.787 45.080,70.400 46.400 C 69.013 47.720,67.720 48.800,67.526 48.800 C 67.333 48.800,65.194 50.825,62.774 53.300 C 60.353 55.775,58.217 57.953,58.028 58.141 C 57.838 58.329,55.594 60.536,53.041 63.045 C 50.488 65.555,48.400 67.770,48.400 67.968 C 48.400 68.166,47.410 69.358,46.200 70.618 C 44.990 71.877,44.000 73.071,44.000 73.272 C 44.000 73.472,43.595 74.070,43.100 74.599 C 41.731 76.063,41.200 76.740,41.200 77.023 C 41.200 77.164,40.660 77.783,40.000 78.400 C 39.340 79.017,38.800 79.720,38.800 79.964 C 38.800 80.208,38.260 80.972,37.600 81.663 C 36.940 82.354,36.400 83.122,36.400 83.371 C 36.400 83.620,36.040 84.083,35.600 84.400 C 35.160 84.717,34.800 85.257,34.800 85.600 C 34.800 85.943,34.440 86.483,34.000 86.800 C 33.560 87.117,33.200 87.657,33.200 88.000 C 33.200 88.343,32.840 88.883,32.400 89.200 C 31.960 89.517,31.600 90.057,31.600 90.400 C 31.600 90.743,31.240 91.283,30.800 91.600 C 30.360 91.917,30.000 92.329,30.000 92.516 C 30.000 92.703,29.460 93.641,28.800 94.600 C 28.140 95.559,27.600 96.522,27.600 96.739 C 27.600 96.956,27.465 97.193,27.300 97.267 C 26.826 97.477,24.800 101.438,24.800 102.154 C 24.800 102.509,24.620 102.800,24.400 102.800 C 24.180 102.800,24.000 103.120,24.000 103.512 C 24.000 103.903,23.640 104.483,23.200 104.800 C 22.760 105.117,22.400 105.697,22.400 106.088 C 22.400 106.480,22.220 106.800,22.000 106.800 C 21.780 106.800,21.600 107.160,21.600 107.600 C 21.600 108.040,21.420 108.400,21.200 108.400 C 20.980 108.400,20.800 108.745,20.800 109.167 C 20.800 109.588,20.665 109.993,20.500 110.067 C 20.335 110.140,19.775 111.100,19.256 112.200 C 18.737 113.300,18.152 114.513,17.956 114.895 C 17.760 115.277,17.600 115.862,17.600 116.195 C 17.600 116.528,17.420 116.800,17.200 116.800 C 16.980 116.800,16.800 117.160,16.800 117.600 C 16.800 118.040,16.620 118.400,16.400 118.400 C 16.180 118.400,16.000 118.760,16.000 119.200 C 16.000 119.640,15.820 120.000,15.600 120.000 C 15.380 120.000,15.200 120.540,15.200 121.200 C 15.200 121.860,15.020 122.400,14.800 122.400 C 14.580 122.400,14.400 122.760,14.400 123.200 C 14.400 123.640,14.220 124.000,14.000 124.000 C 13.780 124.000,13.600 124.272,13.600 124.605 C 13.600 124.938,13.420 125.568,13.200 126.005 C 12.980 126.442,12.620 127.158,12.400 127.595 C 12.180 128.032,12.000 128.737,12.000 129.161 C 12.000 129.586,11.860 129.993,11.688 130.067 C 11.207 130.272,8.400 139.090,8.400 140.396 C 8.400 141.032,8.220 141.664,8.000 141.800 C 7.780 141.936,7.600 142.487,7.600 143.024 C 7.600 143.561,7.420 144.000,7.200 144.000 C 6.980 144.000,6.800 144.630,6.800 145.400 C 6.800 146.170,6.620 146.800,6.400 146.800 C 6.180 146.800,6.000 147.430,6.000 148.200 C 6.000 148.970,5.820 149.600,5.600 149.600 C 5.380 149.600,5.200 150.320,5.200 151.200 C 5.200 152.080,5.020 152.800,4.800 152.800 C 4.580 152.800,4.400 153.700,4.400 154.800 C 4.400 155.900,4.220 156.800,4.000 156.800 C 3.780 156.800,3.600 157.520,3.600 158.400 C 3.600 159.280,3.420 160.000,3.200 160.000 C 2.980 160.000,2.800 160.990,2.800 162.200 C 2.800 163.410,2.620 164.400,2.400 164.400 C 2.178 164.400,2.000 165.467,2.000 166.800 C 2.000 168.133,1.822 169.200,1.600 169.200 C 1.372 169.200,1.200 170.389,1.200 171.967 C 1.200 173.824,1.036 174.788,0.700 174.900 C -0.032 175.144,-0.032 224.856,0.700 225.100 C 1.036 225.212,1.200 226.176,1.200 228.033 C 1.200 229.611,1.372 230.800,1.600 230.800 C 1.822 230.800,2.000 231.867,2.000 233.200 C 2.000 234.533,2.178 235.600,2.400 235.600 C 2.620 235.600,2.800 236.590,2.800 237.800 C 2.800 239.010,2.980 240.000,3.200 240.000 C 3.420 240.000,3.600 240.720,3.600 241.600 C 3.600 242.480,3.780 243.200,4.000 243.200 C 4.220 243.200,4.400 244.100,4.400 245.200 C 4.400 246.300,4.580 247.200,4.800 247.200 C 5.020 247.200,5.200 247.920,5.200 248.800 C 5.200 249.680,5.380 250.400,5.600 250.400 C 5.820 250.400,6.000 251.030,6.000 251.800 C 6.000 252.570,6.180 253.200,6.400 253.200 C 6.620 253.200,6.800 253.830,6.800 254.600 C 6.800 255.370,6.980 256.000,7.200 256.000 C 7.420 256.000,7.600 256.540,7.600 257.200 C 7.600 257.860,7.780 258.400,8.000 258.400 C 8.220 258.400,8.400 258.931,8.400 259.580 C 8.400 260.903,11.202 269.726,11.688 269.933 C 11.860 270.007,12.000 270.414,12.000 270.839 C 12.000 271.263,12.180 271.968,12.400 272.405 C 12.620 272.842,12.980 273.558,13.200 273.995 C 13.420 274.432,13.600 275.062,13.600 275.395 C 13.600 275.728,13.780 276.000,14.000 276.000 C 14.220 276.000,14.400 276.360,14.400 276.800 C 14.400 277.240,14.580 277.600,14.800 277.600 C 15.020 277.600,15.200 278.140,15.200 278.800 C 15.200 279.460,15.380 280.000,15.600 280.000 C 15.820 280.000,16.000 280.360,16.000 280.800 C 16.000 281.240,16.180 281.600,16.400 281.600 C 16.620 281.600,16.800 281.960,16.800 282.400 C 16.800 282.840,16.980 283.200,17.200 283.200 C 17.420 283.200,17.600 283.472,17.600 283.805 C 17.600 284.138,17.760 284.723,17.956 285.105 C 18.152 285.487,18.737 286.700,19.256 287.800 C 19.775 288.900,20.335 289.860,20.500 289.933 C 20.665 290.007,20.800 290.412,20.800 290.833 C 20.800 291.255,20.980 291.600,21.200 291.600 C 21.420 291.600,21.600 291.960,21.600 292.400 C 21.600 292.840,21.780 293.200,22.000 293.200 C 22.220 293.200,22.400 293.520,22.400 293.912 C 22.400 294.303,22.760 294.883,23.200 295.200 C 23.640 295.517,24.000 296.097,24.000 296.488 C 24.000 296.880,24.180 297.200,24.400 297.200 C 24.620 297.200,24.800 297.491,24.800 297.846 C 24.800 298.562,26.826 302.523,27.300 302.733 C 27.465 302.807,27.600 303.044,27.600 303.261 C 27.600 303.478,28.140 304.441,28.800 305.400 C 29.460 306.359,30.000 307.297,30.000 307.484 C 30.000 307.671,30.360 308.083,30.800 308.400 C 31.240 308.717,31.600 309.257,31.600 309.600 C 31.600 309.943,31.960 310.483,32.400 310.800 C 32.840 311.117,33.200 311.657,33.200 312.000 C 33.200 312.343,33.560 312.883,34.000 313.200 C 34.440 313.517,34.800 314.057,34.800 314.400 C 34.800 314.743,35.160 315.283,35.600 315.600 C 36.040 315.917,36.400 316.380,36.400 316.629 C 36.400 316.878,36.940 317.646,37.600 318.337 C 38.260 319.028,38.800 319.792,38.800 320.036 C 38.800 320.280,39.340 320.983,40.000 321.600 C 40.660 322.217,41.200 322.836,41.200 322.977 C 41.200 323.260,41.731 323.937,43.100 325.401 C 43.595 325.930,44.000 326.524,44.000 326.721 C 44.000 326.917,45.080 328.213,46.400 329.600 C 47.720 330.987,48.800 332.280,48.800 332.474 C 48.800 332.667,50.825 334.806,53.300 337.226 C 55.775 339.647,57.953 341.783,58.141 341.972 C 58.329 342.162,60.536 344.406,63.045 346.959 C 65.555 349.512,67.770 351.600,67.968 351.600 C 68.166 351.600,69.358 352.590,70.618 353.800 C 71.877 355.010,73.063 356.000,73.253 356.000 C 73.443 356.000,74.266 356.630,75.082 357.400 C 75.899 358.170,76.727 358.800,76.923 358.800 C 77.119 358.800,77.783 359.340,78.400 360.000 C 79.017 360.660,79.720 361.200,79.964 361.200 C 80.208 361.200,80.972 361.740,81.663 362.400 C 82.354 363.060,83.122 363.600,83.371 363.600 C 83.620 363.600,84.083 363.960,84.400 364.400 C 84.717 364.840,85.257 365.200,85.600 365.200 C 85.943 365.200,86.483 365.560,86.800 366.000 C 87.117 366.440,87.657 366.800,88.000 366.800 C 88.343 366.800,88.883 367.160,89.200 367.600 C 89.517 368.040,90.057 368.400,90.400 368.400 C 90.743 368.400,91.283 368.760,91.600 369.200 C 91.917 369.640,92.329 370.000,92.516 370.000 C 92.703 370.000,93.641 370.540,94.600 371.200 C 95.559 371.860,96.522 372.400,96.739 372.400 C 96.956 372.400,97.193 372.535,97.267 372.700 C 97.477 373.174,101.438 375.200,102.154 375.200 C 102.509 375.200,102.800 375.380,102.800 375.600 C 102.800 375.820,103.120 376.000,103.512 376.000 C 103.903 376.000,104.483 376.360,104.800 376.800 C 105.117 377.240,105.697 377.600,106.088 377.600 C 106.480 377.600,106.800 377.780,106.800 378.000 C 106.800 378.220,107.160 378.400,107.600 378.400 C 108.040 378.400,108.400 378.580,108.400 378.800 C 108.400 379.020,108.745 379.200,109.167 379.200 C 109.588 379.200,109.993 379.335,110.067 379.500 C 110.140 379.665,111.100 380.225,112.200 380.744 C 113.300 381.263,114.513 381.848,114.895 382.044 C 115.277 382.240,115.862 382.400,116.195 382.400 C 116.528 382.400,116.800 382.580,116.800 382.800 C 116.800 383.020,117.160 383.200,117.600 383.200 C 118.040 383.200,118.400 383.380,118.400 383.600 C 118.400 383.820,118.760 384.000,119.200 384.000 C 119.640 384.000,120.000 384.180,120.000 384.400 C 120.000 384.620,120.540 384.800,121.200 384.800 C 121.860 384.800,122.400 384.980,122.400 385.200 C 122.400 385.420,122.760 385.600,123.200 385.600 C 123.640 385.600,124.000 385.780,124.000 386.000 C 124.000 386.220,124.272 386.400,124.605 386.400 C 124.938 386.400,125.568 386.580,126.005 386.800 C 126.442 387.020,127.158 387.380,127.595 387.600 C 128.032 387.820,128.737 388.000,129.161 388.000 C 129.586 388.000,129.993 388.140,130.067 388.312 C 130.272 388.793,139.090 391.600,140.396 391.600 C 141.032 391.600,141.664 391.780,141.800 392.000 C 141.936 392.220,142.487 392.400,143.024 392.400 C 143.561 392.400,144.000 392.580,144.000 392.800 C 144.000 393.020,144.630 393.200,145.400 393.200 C 146.170 393.200,146.800 393.380,146.800 393.600 C 146.800 393.820,147.430 394.000,148.200 394.000 C 148.970 394.000,149.600 394.180,149.600 394.400 C 149.600 394.620,150.320 394.800,151.200 394.800 C 152.080 394.800,152.800 394.980,152.800 395.200 C 152.800 395.420,153.700 395.600,154.800 395.600 C 155.900 395.600,156.800 395.780,156.800 396.000 C 156.800 396.220,157.520 396.400,158.400 396.400 C 159.280 396.400,160.000 396.580,160.000 396.800 C 160.000 397.020,160.990 397.200,162.200 397.200 C 163.410 397.200,164.400 397.380,164.400 397.600 C 164.400 397.822,165.467 398.000,166.800 398.000 C 168.133 398.000,169.200 398.178,169.200 398.400 C 169.200 398.628,170.389 398.800,171.967 398.800 C 173.824 398.800,174.788 398.964,174.900 399.300 C 175.144 400.032,224.856 400.032,225.100 399.300 C 225.212 398.964,226.176 398.800,228.033 398.800 C 229.611 398.800,230.800 398.628,230.800 398.400 C 230.800 398.178,231.867 398.000,233.200 398.000 C 234.533 398.000,235.600 397.822,235.600 397.600 C 235.600 397.380,236.590 397.200,237.800 397.200 C 239.010 397.200,240.000 397.020,240.000 396.800 C 240.000 396.580,240.720 396.400,241.600 396.400 C 242.480 396.400,243.200 396.220,243.200 396.000 C 243.200 395.780,244.100 395.600,245.200 395.600 C 246.300 395.600,247.200 395.420,247.200 395.200 C 247.200 394.980,247.920 394.800,248.800 394.800 C 249.680 394.800,250.400 394.620,250.400 394.400 C 250.400 394.180,251.030 394.000,251.800 394.000 C 252.570 394.000,253.200 393.820,253.200 393.600 C 253.200 393.380,253.830 393.200,254.600 393.200 C 255.370 393.200,256.000 393.020,256.000 392.800 C 256.000 392.580,256.540 392.400,257.200 392.400 C 257.860 392.400,258.400 392.220,258.400 392.000 C 258.400 391.780,258.931 391.600,259.580 391.600 C 260.903 391.600,269.726 388.798,269.933 388.312 C 270.007 388.140,270.414 388.000,270.839 388.000 C 271.585 388.000,271.976 387.855,273.895 386.862 C 274.387 386.608,275.062 386.400,275.395 386.400 C 275.728 386.400,276.000 386.220,276.000 386.000 C 276.000 385.780,276.360 385.600,276.800 385.600 C 277.240 385.600,277.600 385.420,277.600 385.200 C 277.600 384.980,278.140 384.800,278.800 384.800 C 279.460 384.800,280.000 384.620,280.000 384.400 C 280.000 384.180,280.360 384.000,280.800 384.000 C 281.240 384.000,281.600 383.820,281.600 383.600 C 281.600 383.380,281.960 383.200,282.400 383.200 C 282.840 383.200,283.200 383.020,283.200 382.800 C 283.200 382.580,283.472 382.400,283.805 382.400 C 284.138 382.400,284.723 382.240,285.105 382.044 C 285.487 381.848,286.700 381.263,287.800 380.744 C 288.900 380.225,289.860 379.665,289.933 379.500 C 290.007 379.335,290.412 379.200,290.833 379.200 C 291.255 379.200,291.600 379.020,291.600 378.800 C 291.600 378.580,291.960 378.400,292.400 378.400 C 292.840 378.400,293.200 378.220,293.200 378.000 C 293.200 377.780,293.520 377.600,293.912 377.600 C 294.303 377.600,294.883 377.240,295.200 376.800 C 295.517 376.360,296.097 376.000,296.488 376.000 C 296.880 376.000,297.200 375.820,297.200 375.600 C 297.200 375.380,297.491 375.200,297.846 375.200 C 298.562 375.200,302.523 373.174,302.733 372.700 C 302.807 372.535,303.044 372.400,303.261 372.400 C 303.478 372.400,304.441 371.860,305.400 371.200 C 306.359 370.540,307.297 370.000,307.484 370.000 C 307.671 370.000,308.083 369.640,308.400 369.200 C 308.717 368.760,309.257 368.400,309.600 368.400 C 309.943 368.400,310.483 368.040,310.800 367.600 C 311.117 367.160,311.657 366.800,312.000 366.800 C 312.343 366.800,312.883 366.440,313.200 366.000 C 313.517 365.560,314.057 365.200,314.400 365.200 C 314.743 365.200,315.283 364.840,315.600 364.400 C 315.917 363.960,316.380 363.600,316.629 363.600 C 316.878 363.600,317.646 363.060,318.337 362.400 C 319.028 361.740,319.792 361.200,320.036 361.200 C 320.280 361.200,320.983 360.660,321.600 360.000 C 322.217 359.340,322.934 358.800,323.194 358.800 C 323.454 358.800,324.279 358.170,325.026 357.400 C 325.774 356.630,326.542 356.000,326.732 356.000 C 326.922 356.000,328.213 354.920,329.600 353.600 C 330.987 352.280,332.280 351.200,332.474 351.200 C 332.667 351.200,334.806 349.175,337.226 346.700 C 339.647 344.225,341.783 342.047,341.972 341.859 C 342.162 341.671,344.406 339.464,346.959 336.955 C 349.512 334.445,351.600 332.230,351.600 332.032 C 351.600 331.834,352.590 330.642,353.800 329.382 C 355.010 328.123,356.000 326.934,356.000 326.739 C 356.000 326.545,356.630 325.774,357.400 325.026 C 358.170 324.279,358.800 323.454,358.800 323.194 C 358.800 322.934,359.340 322.217,360.000 321.600 C 360.660 320.983,361.200 320.280,361.200 320.036 C 361.200 319.792,361.740 319.028,362.400 318.337 C 363.060 317.646,363.600 316.878,363.600 316.629 C 363.600 316.380,363.960 315.917,364.400 315.600 C 364.840 315.283,365.200 314.743,365.200 314.400 C 365.200 314.057,365.560 313.517,366.000 313.200 C 366.440 312.883,366.800 312.343,366.800 312.000 C 366.800 311.657,367.160 311.117,367.600 310.800 C 368.040 310.483,368.400 309.943,368.400 309.600 C 368.400 309.257,368.760 308.717,369.200 308.400 C 369.640 308.083,370.000 307.671,370.000 307.484 C 370.000 307.297,370.540 306.359,371.200 305.400 C 371.860 304.441,372.400 303.478,372.400 303.261 C 372.400 303.044,372.535 302.807,372.700 302.733 C 373.174 302.523,375.200 298.562,375.200 297.846 C 375.200 297.491,375.380 297.200,375.600 297.200 C 375.820 297.200,376.000 296.880,376.000 296.488 C 376.000 296.097,376.360 295.517,376.800 295.200 C 377.240 294.883,377.600 294.303,377.600 293.912 C 377.600 293.520,377.780 293.200,378.000 293.200 C 378.220 293.200,378.400 292.840,378.400 292.400 C 378.400 291.960,378.580 291.600,378.800 291.600 C 379.020 291.600,379.200 291.255,379.200 290.833 C 379.200 290.412,379.335 290.007,379.500 289.933 C 379.665 289.860,380.225 288.900,380.744 287.800 C 381.263 286.700,381.848 285.487,382.044 285.105 C 382.240 284.723,382.400 284.138,382.400 283.805 C 382.400 283.472,382.580 283.200,382.800 283.200 C 383.020 283.200,383.200 282.840,383.200 282.400 C 383.200 281.960,383.380 281.600,383.600 281.600 C 383.820 281.600,384.000 281.240,384.000 280.800 C 384.000 280.360,384.180 280.000,384.400 280.000 C 384.620 280.000,384.800 279.460,384.800 278.800 C 384.800 278.140,384.980 277.600,385.200 277.600 C 385.420 277.600,385.600 277.240,385.600 276.800 C 385.600 276.360,385.780 276.000,386.000 276.000 C 386.220 276.000,386.400 275.728,386.400 275.395 C 386.400 275.062,386.580 274.432,386.800 273.995 C 387.020 273.558,387.380 272.842,387.600 272.405 C 387.820 271.968,388.000 271.263,388.000 270.839 C 388.000 270.414,388.140 270.007,388.312 269.933 C 388.798 269.726,391.600 260.903,391.600 259.580 C 391.600 258.931,391.780 258.400,392.000 258.400 C 392.220 258.400,392.400 257.860,392.400 257.200 C 392.400 256.540,392.580 256.000,392.800 256.000 C 393.020 256.000,393.200 255.370,393.200 254.600 C 393.200 253.830,393.380 253.200,393.600 253.200 C 393.820 253.200,394.000 252.570,394.000 251.800 C 394.000 251.030,394.180 250.400,394.400 250.400 C 394.620 250.400,394.800 249.680,394.800 248.800 C 394.800 247.920,394.980 247.200,395.200 247.200 C 395.420 247.200,395.600 246.300,395.600 245.200 C 395.600 244.100,395.780 243.200,396.000 243.200 C 396.220 243.200,396.400 242.480,396.400 241.600 C 396.400 240.720,396.580 240.000,396.800 240.000 C 397.020 240.000,397.200 239.010,397.200 237.800 C 397.200 236.590,397.380 235.600,397.600 235.600 C 397.822 235.600,398.000 234.533,398.000 233.200 C 398.000 231.867,398.178 230.800,398.400 230.800 C 398.628 230.800,398.800 229.611,398.800 228.033 C 398.800 226.176,398.964 225.212,399.300 225.100 C 399.693 224.969,399.800 219.591,399.800 200.000 C 399.800 180.409,399.693 175.031,399.300 174.900 C 398.964 174.788,398.800 173.824,398.800 171.967 C 398.800 170.389,398.628 169.200,398.400 169.200 C 398.178 169.200,398.000 168.133,398.000 166.800 C 398.000 165.467,397.822 164.400,397.600 164.400 C 397.380 164.400,397.200 163.410,397.200 162.200 C 397.200 160.990,397.020 160.000,396.800 160.000 C 396.580 160.000,396.400 159.280,396.400 158.400 C 396.400 157.520,396.220 156.800,396.000 156.800 C 395.780 156.800,395.600 155.900,395.600 154.800 C 395.600 153.700,395.420 152.800,395.200 152.800 C 394.980 152.800,394.800 152.080,394.800 151.200 C 394.800 150.320,394.620 149.600,394.400 149.600 C 394.180 149.600,394.000 148.970,394.000 148.200 C 394.000 147.430,393.820 146.800,393.600 146.800 C 393.380 146.800,393.200 146.170,393.200 145.400 C 393.200 144.630,393.020 144.000,392.800 144.000 C 392.580 144.000,392.400 143.561,392.400 143.024 C 392.400 142.487,392.220 141.936,392.000 141.800 C 391.780 141.664,391.600 141.032,391.600 140.396 C 391.600 139.090,388.793 130.272,388.312 130.067 C 388.140 129.993,388.000 129.586,388.000 129.161 C 388.000 128.737,387.820 128.032,387.600 127.595 C 387.380 127.158,387.020 126.442,386.800 126.005 C 386.580 125.568,386.400 124.938,386.400 124.605 C 386.400 124.272,386.220 124.000,386.000 124.000 C 385.780 124.000,385.600 123.640,385.600 123.200 C 385.600 122.760,385.420 122.400,385.200 122.400 C 384.980 122.400,384.800 121.860,384.800 121.200 C 384.800 120.540,384.620 120.000,384.400 120.000 C 384.180 120.000,384.000 119.640,384.000 119.200 C 384.000 118.760,383.820 118.400,383.600 118.400 C 383.380 118.400,383.200 118.040,383.200 117.600 C 383.200 117.160,383.020 116.800,382.800 116.800 C 382.580 116.800,382.400 116.528,382.400 116.195 C 382.400 115.862,382.240 115.277,382.044 114.895 C 381.848 114.513,381.263 113.300,380.744 112.200 C 380.225 111.100,379.665 110.140,379.500 110.067 C 379.335 109.993,379.200 109.588,379.200 109.167 C 379.200 108.745,379.020 108.400,378.800 108.400 C 378.580 108.400,378.400 108.040,378.400 107.600 C 378.400 107.160,378.220 106.800,378.000 106.800 C 377.780 106.800,377.600 106.480,377.600 106.088 C 377.600 105.697,377.240 105.117,376.800 104.800 C 376.360 104.483,376.000 103.903,376.000 103.512 C 376.000 103.120,375.820 102.800,375.600 102.800 C 375.380 102.800,375.200 102.509,375.200 102.154 C 375.200 101.438,373.174 97.477,372.700 97.267 C 372.535 97.193,372.400 96.956,372.400 96.739 C 372.400 96.522,371.860 95.559,371.200 94.600 C 370.540 93.641,370.000 92.703,370.000 92.516 C 370.000 92.329,369.640 91.917,369.200 91.600 C 368.760 91.283,368.400 90.743,368.400 90.400 C 368.400 90.057,368.040 89.517,367.600 89.200 C 367.160 88.883,366.800 88.343,366.800 88.000 C 366.800 87.657,366.440 87.117,366.000 86.800 C 365.560 86.483,365.200 85.943,365.200 85.600 C 365.200 85.257,364.840 84.717,364.400 84.400 C 363.960 84.083,363.600 83.620,363.600 83.371 C 363.600 83.122,363.060 82.354,362.400 81.663 C 361.740 80.972,361.200 80.208,361.200 79.964 C 361.200 79.720,360.660 79.017,360.000 78.400 C 359.340 77.783,358.800 77.119,358.800 76.923 C 358.800 76.727,358.170 75.899,357.400 75.082 C 356.630 74.266,356.000 73.446,356.000 73.260 C 356.000 73.074,354.920 71.787,353.600 70.400 C 352.280 69.013,351.200 67.720,351.200 67.526 C 351.200 67.333,349.175 65.194,346.700 62.774 C 344.225 60.353,342.047 58.217,341.859 58.028 C 341.671 57.838,339.464 55.594,336.955 53.041 C 334.445 50.488,332.230 48.400,332.032 48.400 C 331.834 48.400,330.642 47.410,329.382 46.200 C 328.123 44.990,326.929 44.000,326.728 44.000 C 326.528 44.000,325.930 43.595,325.401 43.100 C 323.937 41.731,323.260 41.200,322.977 41.200 C 322.836 41.200,322.217 40.660,321.600 40.000 C 320.983 39.340,320.280 38.800,320.036 38.800 C 319.792 38.800,319.028 38.260,318.337 37.600 C 317.646 36.940,316.878 36.400,316.629 36.400 C 316.380 36.400,315.917 36.040,315.600 35.600 C 315.283 35.160,314.743 34.800,314.400 34.800 C 314.057 34.800,313.517 34.440,313.200 34.000 C 312.883 33.560,312.343 33.200,312.000 33.200 C 311.657 33.200,311.117 32.840,310.800 32.400 C 310.483 31.960,309.943 31.600,309.600 31.600 C 309.257 31.600,308.717 31.240,308.400 30.800 C 308.083 30.360,307.671 30.000,307.484 30.000 C 307.297 30.000,306.359 29.460,305.400 28.800 C 304.441 28.140,303.478 27.600,303.261 27.600 C 303.044 27.600,302.807 27.465,302.733 27.300 C 302.523 26.826,298.562 24.800,297.846 24.800 C 297.491 24.800,297.200 24.620,297.200 24.400 C 297.200 24.180,296.880 24.000,296.488 24.000 C 296.097 24.000,295.517 23.640,295.200 23.200 C 294.883 22.760,294.303 22.400,293.912 22.400 C 293.520 22.400,293.200 22.220,293.200 22.000 C 293.200 21.780,292.840 21.600,292.400 21.600 C 291.960 21.600,291.600 21.420,291.600 21.200 C 291.600 20.980,291.255 20.800,290.833 20.800 C 290.412 20.800,290.007 20.665,289.933 20.500 C 289.860 20.335,288.900 19.775,287.800 19.256 C 286.700 18.737,285.487 18.152,285.105 17.956 C 284.723 17.760,284.138 17.600,283.805 17.600 C 283.472 17.600,283.200 17.420,283.200 17.200 C 283.200 16.980,282.840 16.800,282.400 16.800 C 281.960 16.800,281.600 16.620,281.600 16.400 C 281.600 16.180,281.240 16.000,280.800 16.000 C 280.360 16.000,280.000 15.820,280.000 15.600 C 280.000 15.380,279.460 15.200,278.800 15.200 C 278.140 15.200,277.600 15.020,277.600 14.800 C 277.600 14.580,277.240 14.400,276.800 14.400 C 276.360 14.400,276.000 14.220,276.000 14.000 C 276.000 13.780,275.728 13.600,275.395 13.600 C 275.062 13.600,274.387 13.392,273.895 13.138 C 271.976 12.145,271.585 12.000,270.839 12.000 C 270.414 12.000,270.007 11.860,269.933 11.688 C 269.726 11.202,260.903 8.400,259.580 8.400 C 258.931 8.400,258.400 8.220,258.400 8.000 C 258.400 7.780,257.860 7.600,257.200 7.600 C 256.540 7.600,256.000 7.420,256.000 7.200 C 256.000 6.980,255.370 6.800,254.600 6.800 C 253.830 6.800,253.200 6.620,253.200 6.400 C 253.200 6.180,252.570 6.000,251.800 6.000 C 251.030 6.000,250.400 5.820,250.400 5.600 C 250.400 5.380,249.680 5.200,248.800 5.200 C 247.920 5.200,247.200 5.020,247.200 4.800 C 247.200 4.580,246.300 4.400,245.200 4.400 C 244.100 4.400,243.200 4.220,243.200 4.000 C 243.200 3.780,242.480 3.600,241.600 3.600 C 240.720 3.600,240.000 3.420,240.000 3.200 C 240.000 2.980,239.010 2.800,237.800 2.800 C 236.590 2.800,235.600 2.620,235.600 2.400 C 235.600 2.178,234.533 2.000,233.200 2.000 C 231.867 2.000,230.800 1.822,230.800 1.600 C 230.800 1.372,229.611 1.200,228.033 1.200 C 226.198 1.200,225.211 1.034,225.103 0.708 C 224.941 0.222,187.291 -0.126,178.300 0.275 M182.301 188.298 L 182.402 252.795 213.701 252.898 L 245.000 253.000 245.112 264.000 C 245.174 270.050,245.125 275.406,245.004 275.902 L 244.784 276.803 200.092 276.702 L 155.400 276.600 155.297 200.600 C 155.241 158.800,155.281 124.373,155.387 124.095 C 155.538 123.698,158.456 123.612,168.890 123.695 L 182.200 123.800 182.301 188.298 " stroke="none" fill="#040404" fill-rule="evenodd"></path><path id="path4" d="M155.387 124.021 C 155.240 124.259,155.228 124.561,155.360 124.693 C 155.492 124.825,155.600 124.723,155.600 124.467 C 155.600 124.121,159.009 124.000,168.799 124.000 L 181.998 124.000 182.101 188.300 L 182.204 252.600 182.202 188.200 L 182.200 123.800 168.927 123.695 C 159.748 123.622,155.571 123.723,155.387 124.021 M244.600 264.538 L 244.600 276.200 200.225 276.302 C 165.004 276.383,155.776 276.300,155.494 275.902 C 155.230 275.529,155.181 275.554,155.303 276.000 C 155.528 276.825,244.347 277.125,244.869 276.302 C 245.274 275.664,245.303 253.311,244.900 253.062 C 244.735 252.960,244.600 258.124,244.600 264.538 " stroke="none" fill="#242424" fill-rule="evenodd"></path></g></svg>